<svg width="380" height="381" viewBox="0 0 380 381" fill="none" xmlns="http://www.w3.org/2000/svg">
<circle cx="190" cy="190" r="190" fill="#1093FF"/>
<path d="M219.147 331.485V378.173C217.328 378.457 215.497 378.707 213.655 378.935C212.2 379.117 210.733 379.264 209.255 379.401V331.474H219.147V331.485Z" fill="#4A9AE2"/>
<path d="M219.137 331.485H209.244V345.164H219.137V331.485Z" fill="#4788D6"/>
<path d="M147.934 333.714H262.129L264.153 321.309H147.934V333.714Z" fill="#5AA3E7"/>
<path d="M214.133 174.343H273.01C282.311 174.343 289.35 182.768 287.678 191.922L264.152 321.308H174.961L199.453 186.589C200.75 179.494 206.924 174.343 214.133 174.343Z" fill="#5AA3E7"/>
<path d="M206.129 174.343H265.006C274.307 174.343 281.346 182.768 279.674 191.922L256.148 321.308H166.957L191.449 186.589C192.746 179.494 198.92 174.343 206.129 174.343Z" fill="#6AACEC"/>
<path d="M213.679 299.681C213.679 299.999 213.656 300.329 213.645 300.67C213.372 306.321 211.541 313.212 205.367 318.522C204.218 319.523 202.911 320.455 201.432 321.319C200.057 322.126 198.601 322.866 197.089 323.536C187.037 328.039 174.598 329.677 165.751 330.268C159.043 330.711 154.392 330.541 154.392 330.541L129.944 370.326C121.621 367.154 111.615 363.629 104.36 359.524C114.708 341.365 131.651 315.509 136.165 307.64C138.018 304.411 141.941 301.796 146.842 299.692C162.374 293.006 187.697 291.414 187.697 291.414L193.86 291.119L205.389 290.573L212.519 290.243C212.519 290.243 212.621 290.55 212.758 291.119C212.871 291.562 213.008 292.176 213.133 292.904C213.428 294.587 213.724 296.963 213.679 299.681Z" fill="#202070"/>
<path d="M252.805 300.022C252.692 306.867 250.395 315.895 240.57 321.649C232.736 326.231 222.548 328.562 213.645 329.733C210.7 330.12 207.903 330.381 205.367 330.563C202.024 330.791 199.17 330.87 197.089 330.893C194.838 330.916 193.507 330.87 193.507 330.87L176.599 379.423C172.597 378.979 168.56 378.388 164.489 377.638C159.714 376.751 154.937 376.625 150.411 375.443C153.811 365.107 160.078 345.811 165.74 330.597C169.424 320.671 172.904 312.097 175.269 307.97C177.122 304.74 181.057 302.125 185.946 300.022C191.677 297.554 198.726 295.792 205.356 294.53C208.05 294.018 210.666 293.597 213.099 293.245C220.922 292.119 226.801 291.744 226.801 291.744L231.758 291.516L232.952 291.46L251.611 290.584C251.611 290.584 251.623 290.629 251.657 290.72C251.702 290.857 251.77 291.118 251.85 291.471C252.225 292.926 252.873 296.121 252.805 300.022Z" fill="#34318B"/>
<path d="M231.45 265.032C231.45 265.987 231.45 266.942 231.438 267.897C231.404 279.95 231.245 291.105 231.245 291.105L205.377 286.466C205.377 286.466 204.877 276.221 204.808 267.897C204.797 266.908 204.797 265.953 204.808 265.032C204.831 261.2 204.979 258.198 205.388 257.505C205.445 257.402 205.502 257.209 205.559 256.913C205.661 256.322 205.775 255.333 205.877 254.048C206.036 252.013 206.184 249.215 206.309 245.941C206.355 245.02 206.389 244.065 206.423 243.075C206.514 240.54 206.605 237.799 206.684 234.968C206.707 234.024 206.741 233.069 206.764 232.103C206.844 229.419 206.912 226.69 206.969 223.995C206.992 223.04 207.014 222.074 207.037 221.13C207.094 218.321 207.151 215.581 207.208 213.023C207.23 212.045 207.242 211.09 207.264 210.157C207.412 202.584 207.503 197.149 207.537 197.024C207.64 196.604 213.052 188.439 213.052 188.439L225.889 185.312L231.268 191.498C231.268 191.498 231.177 199.787 231.109 210.169C231.109 211.101 231.097 212.056 231.097 213.034C231.086 215.672 231.075 218.412 231.075 221.141C231.075 222.097 231.075 223.052 231.075 224.007C231.075 226.77 231.074 229.51 231.086 232.114C231.086 233.092 231.097 234.047 231.109 234.979C231.131 237.981 231.165 240.744 231.211 243.087C231.234 243.996 231.256 244.849 231.268 245.622C231.268 245.725 231.279 245.838 231.279 245.952C231.347 248.306 231.404 251.08 231.427 254.059C231.438 254.992 231.45 255.947 231.45 256.925C231.438 259.551 231.45 262.292 231.45 265.032Z" fill="white"/>
<path d="M231.085 210.169C231.085 211.101 231.074 212.056 231.074 213.034H207.195C207.218 212.056 207.229 211.101 207.252 210.169H231.085Z" fill="#EFEFF4"/>
<path d="M231.052 221.141C231.052 222.096 231.052 223.051 231.052 224.006H206.969C206.991 223.051 207.014 222.084 207.037 221.141H231.052Z" fill="#EFEFF4"/>
<path d="M231.074 234.98H206.673C206.696 234.036 206.73 233.081 206.752 232.114H231.063C231.063 233.092 231.063 234.047 231.074 234.98Z" fill="#EFEFF4"/>
<path d="M231.256 245.951H206.298C206.343 245.03 206.377 244.075 206.412 243.086H231.188C231.211 243.996 231.234 244.848 231.245 245.622C231.245 245.724 231.256 245.838 231.256 245.951Z" fill="#EFEFF4"/>
<path d="M231.427 256.924H205.536C205.638 256.333 205.752 255.343 205.855 254.059H231.404C231.404 254.991 231.416 255.946 231.427 256.924Z" fill="#EFEFF4"/>
<path d="M231.449 265.032C231.449 265.987 231.449 266.942 231.437 267.898H204.807C204.796 266.908 204.796 265.953 204.807 265.032H231.449Z" fill="#EFEFF4"/>
<path d="M192.403 244.6L184.194 274.345L149.354 276.005L145.863 263.248L168.593 257.699L173.664 232.865L184.353 234.514L192.403 244.6Z" fill="url(#paint0_linear)"/>
<path d="M257.353 288.332C256.5 291.3 229.574 292.573 227.721 290.072C226.88 288.935 225.129 276.109 224.23 258.507C223.15 237.369 223.298 209.352 227.71 186.326L241.866 192.478L246.403 199.266L255.227 210.079C255.227 210.079 254.851 229.455 254.453 242.315C254.431 243.111 254.408 243.873 254.374 244.612C253.964 257.29 258.206 285.364 257.353 288.332Z" fill="url(#paint1_linear)"/>
<path d="M257.352 288.331C256.499 291.298 229.574 292.572 227.72 290.07C226.879 288.933 225.128 276.107 224.229 258.505C228.221 256.891 233.963 252.422 235.077 239.949C236.817 220.459 245.424 209.976 245.424 209.976C245.424 209.976 249.086 222.381 245.424 237.493L254.464 242.314C254.441 243.11 254.419 243.871 254.384 244.611C253.964 257.289 258.205 285.363 257.352 288.331Z" fill="url(#paint2_linear)"/>
<path d="M207.516 290.071C207.516 290.071 183.978 290.662 184.399 289.593C184.82 288.536 189.061 280.053 191.369 272.515C193.678 264.976 194.587 236.151 194.587 236.151L192.404 244.588C192.404 244.588 192.381 244.588 192.336 244.566C191.881 244.452 189.368 243.792 186.264 242.974C180.465 241.439 172.631 239.29 172.426 238.892C172.108 238.255 175.075 225.11 177.827 215.991C180.59 206.872 185.673 194.785 212.405 188.429C207.334 206.042 207.516 290.071 207.516 290.071Z" fill="url(#paint3_linear)"/>
<path d="M260.878 244.6C260.878 244.6 252.179 278.69 244.47 278.849C236.75 279.008 202.251 274.062 196.759 273.584C191.267 273.107 186.105 270.48 186.105 270.48C186.105 270.48 178.157 276.199 177.122 274.778C176.11 273.391 180.044 268.013 180.26 267.717C179.987 267.944 173.904 273.323 172.585 272.004C171.232 270.651 178.873 259.2 183.398 259.041C187.935 258.882 198.033 263.726 198.033 263.726L235.078 260.542L236.42 254.845L239.933 239.938L260.878 244.6Z" fill="url(#paint4_linear)"/>
<path d="M225.866 185.313C225.866 185.313 243.366 185.153 256.249 194.534C269.131 203.915 270.064 217.492 260.888 244.599C256.123 243.599 239.92 241.211 239.943 239.937C239.954 238.664 246.083 208.532 246.083 208.532L225.866 185.313Z" fill="url(#paint5_linear)"/>
<path d="M243.038 259.393C242.935 260.052 235.078 260.541 235.078 260.541L236.42 254.845C239.751 256.903 243.094 259.063 243.038 259.393Z" fill="url(#paint6_linear)"/>
<path d="M195.803 208.372C195.803 208.372 195.007 217.127 194.586 236.151L192.335 244.576C191.88 244.462 189.367 243.803 186.263 242.984C188.73 238.925 191.277 233.353 191.516 227.293C191.982 215.217 195.803 208.372 195.803 208.372Z" fill="url(#paint7_linear)"/>
<path d="M194.69 155.568C187.697 155.989 180.795 145.176 184.399 141.151C188.004 137.125 193.098 141.151 193.098 141.151C193.098 141.151 188.754 137.546 192.143 133.305C195.531 129.064 201.262 136.909 211.757 135.317C222.252 133.725 231.883 139.274 229.893 148.041C237.637 148.041 235.306 158.65 231.906 165.324C228.517 171.999 222.571 181.869 215.578 174.444C208.585 167.019 201.478 164.051 201.478 164.051L194.69 155.568Z" fill="url(#paint8_linear)"/>
<path d="M220.352 195.172C214.678 196.172 211.87 193.205 210.71 191.249C210.005 190.055 209.914 188.224 209.391 186.041C209.05 184.62 208.527 183.039 207.526 181.391L223.002 169.781C222.854 171.794 223.82 175.171 224.912 178.366C226.186 182.073 227.63 185.53 227.709 186.326C227.88 187.804 226.015 194.171 220.352 195.172Z" fill="url(#paint9_linear)"/>
<path d="M224.912 178.368C221.66 186.202 215.633 187.669 209.379 186.043C209.038 184.622 208.515 183.041 207.515 181.393L222.99 169.783C222.854 171.796 223.82 175.173 224.912 178.368Z" fill="url(#paint10_linear)"/>
<path d="M193.734 151.997C213.144 155.101 220.614 151.997 220.614 151.997C220.614 151.997 222.559 162.856 223.912 163.334C225.265 163.811 224.344 157.648 227.369 156.886C230.393 156.136 232.463 161.423 230.427 164.482C228.403 167.541 225.572 166.472 225.572 166.472C225.572 166.472 220.842 182.971 208.596 183.255C196.349 183.528 193.404 167.825 193.564 163.459C193.734 159.07 193.416 154.692 193.734 151.997Z" fill="url(#paint11_linear)"/>
<path d="M194.542 274.347H143.818C142.567 274.347 141.566 275.359 141.566 276.598C141.566 277.849 142.578 278.849 143.818 278.849H194.542C195.793 278.849 196.794 277.837 196.794 276.598C196.805 275.359 195.793 274.347 194.542 274.347Z" fill="#202070"/>
<path d="M147.979 221.895H79.2776C76.9466 221.895 75.4002 223.782 75.821 226.113L85.2927 278.85H162.431L152.959 226.113C152.539 223.782 150.31 221.895 147.979 221.895Z" fill="#202070"/>
<path d="M118.46 257.519L110.91 251.572L115.265 245.625L122.804 251.572L118.46 257.519Z" fill="#4848AA"/>
<path d="M169.776 276.598C169.776 276.928 169.515 277.189 169.185 277.189C168.855 277.189 168.594 276.928 168.594 276.598C168.594 276.268 168.855 276.007 169.185 276.007C169.515 276.007 169.776 276.268 169.776 276.598Z" fill="#4848AA"/>
<path d="M178.646 277.189C178.973 277.189 179.237 276.925 179.237 276.598C179.237 276.272 178.973 276.007 178.646 276.007C178.319 276.007 178.055 276.272 178.055 276.598C178.055 276.925 178.319 277.189 178.646 277.189Z" fill="#4848AA"/>
<path d="M181.387 276.599C181.387 276.826 181.205 277.008 180.978 277.008C180.75 277.008 180.568 276.826 180.568 276.599C180.568 276.371 180.75 276.189 180.978 276.189C181.205 276.189 181.387 276.371 181.387 276.599Z" fill="#4848AA"/>
<path d="M174.791 277.008H172.539C172.312 277.008 172.13 276.826 172.13 276.599C172.13 276.371 172.312 276.189 172.539 276.189H174.791C175.018 276.189 175.2 276.371 175.2 276.599C175.2 276.826 175.018 277.008 174.791 277.008Z" fill="#4848AA"/>
<path d="M281.539 286.468H134.926C132.823 286.468 131.117 284.762 131.117 282.659C131.117 280.555 132.823 278.85 134.926 278.85H281.539C283.643 278.85 285.348 280.555 285.348 282.659C285.348 284.762 283.643 286.468 281.539 286.468Z" fill="#89BEF5"/>
<path d="M211.348 286.468H64.7349C62.6314 286.468 60.9258 284.762 60.9258 282.659C60.9258 280.555 62.6314 278.85 64.7349 278.85H211.337C213.44 278.85 215.146 280.555 215.146 282.659C215.157 284.762 213.451 286.468 211.348 286.468Z" fill="#A9D0FF"/>
<path d="M205.378 286.468V379.718C202.638 379.9 199.886 380.025 197.1 380.059V299.669H78.9819V346.029C75.3656 343.755 74.2286 343.037 70.7041 340.39V286.468H205.378Z" fill="#89BEF5"/>
<path d="M205.367 286.468H70.7041V291.107H205.367V286.468Z" fill="#6AACEC"/>
<path d="M275.239 286.468L276.057 359.5C273.351 361.058 269.804 362.636 266.961 363.773V299.669H213.644V378.934C210.915 379.264 208.152 379.525 205.366 379.718V286.468H275.239Z" fill="#6AACEC"/>
<path d="M275.238 286.468H205.377V291.107H275.238V286.468Z" fill="#4788D6"/>
<path d="M85.031 299.26V349.859C84.4625 349.291 82.1884 348.153 79.3457 346.178V299.26H85.031Z" fill="#6AACEC"/>
<path d="M266.961 299.26V363.73C264.714 364.893 262.444 365.643 260.139 366.709V299.26H266.961Z" fill="#4788D6"/>
<path d="M326 322.565C318.074 330.104 309.525 339.139 299.5 345.5L304.265 273H322.548L326 322.565Z" fill="#8FC9EF"/>
<path d="M304.668 268.503C302.462 245.056 309.774 220.518 318.654 209.159C324.055 225.556 305.362 237.006 310.308 272.505" fill="url(#paint12_linear)"/>
<path d="M304.805 264.728C307.932 241.384 301.599 216.585 293.185 204.873C287.136 221.042 305.363 233.22 299.018 268.503" fill="url(#paint13_linear)"/>
<path d="M306.555 271.266C307.191 247.729 316.311 229.774 326.487 219.563C329.876 236.494 309.943 245.614 310.58 281.454" fill="url(#paint14_linear)"/>
<path d="M306.555 280.295C305.918 256.758 296.799 238.804 286.622 228.593C283.234 245.524 303.167 254.643 302.53 290.483" fill="url(#paint15_linear)"/>
<path d="M318.5 330.125C312.438 336.089 305.963 341.932 298.5 346.125C295.056 348.221 291 351.625 287 353.625L294.147 261.419H312.449L318.5 330.125Z" fill="#F0F8FF"/>
<path d="M99.5284 211.593H41.0947C37.729 211.593 35 208.875 35 205.509V159.663C35 156.297 37.729 153.568 41.0947 153.568H99.5284C102.894 153.568 105.623 156.297 105.623 159.663V205.509C105.623 208.875 102.894 211.593 99.5284 211.593Z" fill="#4848AA"/>
<path d="M85.2583 178.483V198.734C85.2583 200.258 84.0189 201.497 82.4952 201.497H58.1166C56.5929 201.497 55.3535 200.258 55.3535 198.734V178.483C55.3535 176.959 56.5815 175.72 58.1166 175.72H82.5066C84.0303 175.72 85.2583 176.959 85.2583 178.483Z" fill="url(#paint16_linear)"/>
<path d="M60.3451 175.23H50.373L58.3666 161.893H64.3362L60.3451 175.23Z" fill="url(#paint17_linear)"/>
<path d="M70.3044 175.23H60.3438L64.3348 161.893H70.3044V175.23Z" fill="url(#paint18_linear)"/>
<path d="M80.2758 175.23H70.3037V161.893H76.2847L80.2758 175.23Z" fill="url(#paint19_linear)"/>
<path d="M90.2483 175.23H80.2762L76.2852 161.893H82.2547L90.2483 175.23Z" fill="url(#paint20_linear)"/>
<path d="M55.3865 184.464H55.3297C52.5893 184.464 50.3721 182.246 50.3721 179.506V175.242H60.3441V179.506C60.3441 182.246 58.1268 184.464 55.3865 184.464Z" fill="url(#paint21_linear)"/>
<path d="M65.3582 184.464H65.3013C62.561 184.464 60.3438 182.246 60.3438 179.506V175.242H70.3158V179.506C70.3044 182.246 68.0872 184.464 65.3582 184.464Z" fill="url(#paint22_linear)"/>
<path d="M75.3182 184.464H75.2613C72.521 184.464 70.3037 182.246 70.3037 179.506V175.242H80.2758V179.506C80.2758 182.246 78.0585 184.464 75.3182 184.464Z" fill="url(#paint23_linear)"/>
<path d="M85.2918 184.464H85.2349C82.4946 184.464 80.2773 182.246 80.2773 179.506V175.242H90.2494V179.506C90.2494 182.246 88.0207 184.464 85.2918 184.464Z" fill="url(#paint24_linear)"/>
<path d="M74.6381 189.023V201.496H65.9736V189.023C65.9736 187.704 67.0425 186.635 68.3615 186.635H72.2616C73.5806 186.635 74.6381 187.704 74.6381 189.023Z" fill="#202070"/>
<path d="M167.251 174.026H115.879C114.253 174.026 112.934 172.707 112.934 171.081V132.91C112.934 131.284 114.253 129.965 115.879 129.965H167.251C168.877 129.965 170.196 131.284 170.196 132.91V171.081C170.196 172.707 168.877 174.026 167.251 174.026Z" fill="url(#paint25_linear)"/>
<path d="M126.374 137.332H120.222C119.802 137.332 119.449 136.99 119.449 136.558C119.449 136.138 119.79 135.785 120.222 135.785H126.374C126.795 135.785 127.147 136.126 127.147 136.558C127.147 136.99 126.806 137.332 126.374 137.332Z" fill="white"/>
<path opacity="0.44" d="M129.296 141.107H120.233C119.812 141.107 119.46 140.766 119.46 140.334C119.46 139.913 119.801 139.561 120.233 139.561H129.296C129.716 139.561 130.069 139.902 130.069 140.334C130.057 140.754 129.716 141.107 129.296 141.107Z" fill="white"/>
<path opacity="0.15" d="M119.46 158.822C125.668 158.822 125.236 162.882 130.069 162.882C134.89 162.882 133.935 155.047 140.143 155.047C146.352 155.047 144.441 158.959 148.569 158.959C152.708 158.959 151.753 154.547 156.039 154.547C160.326 154.547 158.427 160.198 164.306 160.198" stroke="black" stroke-width="0.9294" stroke-miterlimit="10" stroke-linecap="round" stroke-linejoin="round"/>
<path d="M119.46 156.365C125.668 156.365 125.236 162.892 130.069 162.892C134.89 162.892 133.935 150.328 140.143 150.328C146.352 150.328 144.441 156.616 148.569 156.616C152.708 156.616 151.753 149.543 156.039 149.543C160.326 149.543 158.427 158.605 164.306 158.605" stroke="white" stroke-width="1.1773" stroke-miterlimit="10" stroke-linecap="round" stroke-linejoin="round"/>
<path d="M101.485 143.494C112.205 143.494 120.895 134.804 120.895 124.084C120.895 113.365 112.205 104.675 101.485 104.675C90.7652 104.675 82.0752 113.365 82.0752 124.084C82.0752 134.804 90.7652 143.494 101.485 143.494Z" fill="url(#paint26_linear)"/>
<path d="M101.486 137.285C108.777 137.285 114.688 131.375 114.688 124.084C114.688 116.793 108.777 110.883 101.486 110.883C94.1956 110.883 88.2852 116.793 88.2852 124.084C88.2852 131.375 94.1956 137.285 101.486 137.285Z" fill="url(#paint27_linear)"/>
<path d="M100.678 130.156V128.701C99.6551 128.655 98.6658 128.382 98.0859 128.041L98.5408 126.256C99.1775 126.609 100.076 126.927 101.065 126.927C101.929 126.927 102.532 126.597 102.532 125.983C102.532 125.403 102.043 125.039 100.917 124.653C99.2912 124.107 98.1769 123.345 98.1769 121.867C98.1769 120.525 99.1207 119.479 100.747 119.161V117.717H102.236V119.059C103.26 119.104 103.942 119.32 104.442 119.559L103.999 121.276C103.601 121.105 102.907 120.753 101.804 120.753C100.815 120.753 100.497 121.185 100.497 121.606C100.497 122.106 101.031 122.424 102.327 122.913C104.135 123.55 104.874 124.391 104.874 125.767C104.874 127.12 103.919 128.28 102.168 128.587V130.145H100.678V130.156Z" fill="url(#paint28_linear)"/>
<path d="M248.131 99.8534V118.41C248.131 119.434 247.301 120.264 246.277 120.264H219.09L213.86 125.494C213.325 126.029 212.404 125.653 212.404 124.892V99.8534C212.404 98.8301 213.234 98 214.258 98H246.266C247.301 98 248.131 98.8301 248.131 99.8534Z" fill="#BDE1FF"/>
<path d="M222.4 109.689C222.4 110.519 221.717 111.201 220.887 111.201C220.057 111.201 219.375 110.53 219.375 109.689C219.375 108.848 220.046 108.177 220.887 108.177C221.717 108.177 222.4 108.859 222.4 109.689Z" fill="white"/>
<path d="M231.78 109.689C231.78 110.519 231.098 111.201 230.268 111.201C229.438 111.201 228.756 110.53 228.756 109.689C228.756 108.848 229.427 108.177 230.268 108.177C231.098 108.177 231.78 108.859 231.78 109.689Z" fill="white"/>
<path d="M241.161 109.689C241.161 110.519 240.479 111.201 239.649 111.201C238.819 111.201 238.137 110.53 238.137 109.689C238.137 108.848 238.808 108.177 239.649 108.177C240.49 108.177 241.161 108.859 241.161 109.689Z" fill="white"/>
<path d="M279.936 154.57H267.53C264.835 154.57 262.652 152.386 262.652 149.692V137.286C262.652 134.591 264.835 132.408 267.53 132.408H279.936C282.631 132.408 284.814 134.591 284.814 137.286V149.692C284.814 152.386 282.631 154.57 279.936 154.57Z" fill="url(#paint29_linear)"/>
<path d="M269.281 143.289L272.385 146.393L278.196 140.583" stroke="white" stroke-width="1.5697" stroke-miterlimit="10" stroke-linecap="round" stroke-linejoin="round"/>
<defs>
<linearGradient id="paint0_linear" x1="146.999" y1="192.196" x2="185.648" y2="302.418" gradientUnits="userSpaceOnUse">
<stop stop-color="#FFD5D3"/>
<stop offset="1" stop-color="#FE96A6"/>
</linearGradient>
<linearGradient id="paint1_linear" x1="244.376" y1="192.041" x2="237.696" y2="305.125" gradientUnits="userSpaceOnUse">
<stop stop-color="#52C4FF"/>
<stop offset="1" stop-color="#2C84FF"/>
</linearGradient>
<linearGradient id="paint2_linear" x1="183.231" y1="73.7912" x2="240.966" y2="264.651" gradientUnits="userSpaceOnUse">
<stop stop-color="#52C4FF"/>
<stop offset="1" stop-color="#2C84FF"/>
</linearGradient>
<linearGradient id="paint3_linear" x1="194.407" y1="189.089" x2="187.727" y2="302.174" gradientUnits="userSpaceOnUse">
<stop stop-color="#52C4FF"/>
<stop offset="1" stop-color="#2C84FF"/>
</linearGradient>
<linearGradient id="paint4_linear" x1="234.644" y1="256.733" x2="371.11" y2="176.572" gradientUnits="userSpaceOnUse">
<stop stop-color="#FFD5D3"/>
<stop offset="1" stop-color="#FE96A6"/>
</linearGradient>
<linearGradient id="paint5_linear" x1="246.951" y1="192.192" x2="240.271" y2="305.276" gradientUnits="userSpaceOnUse">
<stop stop-color="#52C4FF"/>
<stop offset="1" stop-color="#2C84FF"/>
</linearGradient>
<linearGradient id="paint6_linear" x1="242.866" y1="237.118" x2="237.352" y2="270.201" gradientUnits="userSpaceOnUse">
<stop stop-color="#FFD5D3"/>
<stop offset="1" stop-color="#FE96A6"/>
</linearGradient>
<linearGradient id="paint7_linear" x1="168.346" y1="150.7" x2="192.924" y2="231.95" gradientUnits="userSpaceOnUse">
<stop stop-color="#52C4FF"/>
<stop offset="1" stop-color="#2C84FF"/>
</linearGradient>
<linearGradient id="paint8_linear" x1="270.856" y1="349.561" x2="195.452" y2="103.915" gradientUnits="userSpaceOnUse">
<stop stop-color="#002757"/>
<stop offset="1" stop-color="#061F3E"/>
</linearGradient>
<linearGradient id="paint9_linear" x1="232.771" y1="233.275" x2="193.116" y2="102.644" gradientUnits="userSpaceOnUse">
<stop stop-color="#FFD5D3"/>
<stop offset="1" stop-color="#FE96A6"/>
</linearGradient>
<linearGradient id="paint10_linear" x1="232.745" y1="232.556" x2="212.175" y2="165.543" gradientUnits="userSpaceOnUse">
<stop stop-color="#FFD5D3"/>
<stop offset="1" stop-color="#FE96A6"/>
</linearGradient>
<linearGradient id="paint11_linear" x1="195.518" y1="177.112" x2="280.981" y2="82.5299" gradientUnits="userSpaceOnUse">
<stop stop-color="#FFD5D3"/>
<stop offset="1" stop-color="#FE96A6"/>
</linearGradient>
<linearGradient id="paint12_linear" x1="326.301" y1="201.671" x2="314.213" y2="237.299" gradientUnits="userSpaceOnUse">
<stop stop-color="#56E281"/>
<stop offset="1" stop-color="#00966A"/>
</linearGradient>
<linearGradient id="paint13_linear" x1="290.054" y1="210.132" x2="297.052" y2="234.626" gradientUnits="userSpaceOnUse">
<stop stop-color="#56E281"/>
<stop offset="1" stop-color="#00966A"/>
</linearGradient>
<linearGradient id="paint14_linear" x1="317.352" y1="229.744" x2="314.648" y2="305.134" gradientUnits="userSpaceOnUse">
<stop stop-color="#56E281"/>
<stop offset="1" stop-color="#00966A"/>
</linearGradient>
<linearGradient id="paint15_linear" x1="297.37" y1="228.972" x2="294.667" y2="304.362" gradientUnits="userSpaceOnUse">
<stop stop-color="#56E281"/>
<stop offset="1" stop-color="#00966A"/>
</linearGradient>
<linearGradient id="paint16_linear" x1="56.6844" y1="141.796" x2="71.3171" y2="192.056" gradientUnits="userSpaceOnUse">
<stop stop-color="#F4ABFF"/>
<stop offset="1" stop-color="#9552FF"/>
</linearGradient>
<linearGradient id="paint17_linear" x1="57.5831" y1="142.474" x2="57.328" y2="172.061" gradientUnits="userSpaceOnUse">
<stop stop-color="#FFB1E2"/>
<stop offset="1" stop-color="#FF5C8E"/>
</linearGradient>
<linearGradient id="paint18_linear" x1="65.6081" y1="142.543" x2="65.3533" y2="172.099" gradientUnits="userSpaceOnUse">
<stop stop-color="#52C4FF"/>
<stop offset="1" stop-color="#2C84FF"/>
</linearGradient>
<linearGradient id="paint19_linear" x1="75.5164" y1="142.627" x2="75.2618" y2="172.153" gradientUnits="userSpaceOnUse">
<stop stop-color="#FFB1E2"/>
<stop offset="1" stop-color="#FF5C8E"/>
</linearGradient>
<linearGradient id="paint20_linear" x1="83.4857" y1="142.695" x2="83.2315" y2="172.191" gradientUnits="userSpaceOnUse">
<stop stop-color="#52C4FF"/>
<stop offset="1" stop-color="#2C84FF"/>
</linearGradient>
<linearGradient id="paint21_linear" x1="55.2249" y1="157.994" x2="55.6491" y2="219.069" gradientUnits="userSpaceOnUse">
<stop stop-color="#FFB1E2"/>
<stop offset="1" stop-color="#FF5C8E"/>
</linearGradient>
<linearGradient id="paint22_linear" x1="65.4066" y1="168.061" x2="65.1763" y2="194.78" gradientUnits="userSpaceOnUse">
<stop stop-color="#52C4FF"/>
<stop offset="1" stop-color="#2C84FF"/>
</linearGradient>
<linearGradient id="paint23_linear" x1="75.1572" y1="157.855" x2="75.5813" y2="218.931" gradientUnits="userSpaceOnUse">
<stop stop-color="#FFB1E2"/>
<stop offset="1" stop-color="#FF5C8E"/>
</linearGradient>
<linearGradient id="paint24_linear" x1="85.3418" y1="168.061" x2="85.1115" y2="194.78" gradientUnits="userSpaceOnUse">
<stop stop-color="#52C4FF"/>
<stop offset="1" stop-color="#2C84FF"/>
</linearGradient>
<linearGradient id="paint25_linear" x1="109.172" y1="90.1907" x2="157.523" y2="182.44" gradientUnits="userSpaceOnUse">
<stop stop-color="#F4ABFF"/>
<stop offset="1" stop-color="#9552FF"/>
</linearGradient>
<linearGradient id="paint26_linear" x1="86.0955" y1="90.688" x2="136.673" y2="200.433" gradientUnits="userSpaceOnUse">
<stop stop-color="#FFF489"/>
<stop offset="1" stop-color="#FE7F20"/>
</linearGradient>
<linearGradient id="paint27_linear" x1="80.9656" y1="67.5866" x2="108.004" y2="142.022" gradientUnits="userSpaceOnUse">
<stop stop-color="#FFF489"/>
<stop offset="1" stop-color="#FE7F20"/>
</linearGradient>
<linearGradient id="paint28_linear" x1="99.0048" y1="121.421" x2="165.806" y2="191.615" gradientUnits="userSpaceOnUse">
<stop stop-color="#FFF489"/>
<stop offset="1" stop-color="#FE7F20"/>
</linearGradient>
<linearGradient id="paint29_linear" x1="261.548" y1="122.537" x2="292.086" y2="175.023" gradientUnits="userSpaceOnUse">
<stop stop-color="#31E282"/>
<stop offset="1" stop-color="#006391"/>
</linearGradient>
</defs>
</svg>
